{"title":"Detention 2010 DVDRiP XViD-LKRG","uid":5957703,"size":706730947,"categoryP":"video","categoryS":"movies","magnet":"?xt=urn:btih:f7d4b250d10776bcd20f1dd345176bbbee02f3ff&amp;dn=Detention+2010+DVDRiP+XViD-LKRG&amp;tr=udp%3A%2F%2Ftracker.openbittorrent.com%3A80&amp;tr=udp%3A%2F%2Fopen.demonii.com%3A1337&amp;tr=udp%3A%2F%2Ftracker.coppersurfer.tk%3A6969&amp;tr=udp%3A%2F%2Fexodus.desync.com%3A6969","seeders":0,"leechers":1,"uploader":".BONE.","files":52,"time":1289800533,"description":"Infomation\nVideo\nID : 0\nFormat : MPEG-4 Visual\nFormat profile : Simple@L3\nFormat settings, BVOP : No\nFormat settings, QPel : No\nFormat settings, GMC : No warppoints\nFormat settings, Matrix : Default (H.263)\nCodec ID : XVID\nCodec ID/Hint : XviD\nDuration : 1h 20mn\nBit rate : 938 Kbps\nWidth : 688 pixels\nHeight : 384 pixels\nDisplay aspect ratio : 16:9\nFrame rate : 25.000 fps\nColor space : YUV\nChroma subsampling : 4:2:0\nBit depth : 8 bits\nScan type : Progressive\nBits/(Pixel*Frame) : 0.142\nStream size : 542 MiB (78%)\nWriting library : XviD 1.2.1 (UTC 2008-12-04)\n\nAudio\nID : 1\nFormat : AC-3\nFormat/Info : Audio Coding 3\nMode extension : CM (complete main)\nCodec ID : 2000\nDuration : 1h 20mn\nBit rate mode : Constant\nBit rate : 256 Kbps\nChannel(s) : 6 channels\nChannel positions : Front: L C R, Side: L R, LFE\nSampling rate : 48.0 KHz\nBit depth : 16 bits\nStream size : 148 MiB (21%)\nAlignment : Split accross interleaves\nInterleave, duration : 500 ms (12.50 video frames)\n &lt;a href=&quot;\nhttp://www.imdb.com/title/tt0990363/&quot; rel=&quot;nofollow&quot; target=&quot;_NEW&quot;&gt;\nhttp://www.imdb.com/title/tt0990363/&lt;/a&gt;","torrent":{"xt":"urn:btih:f7d4b250d10776bcd20f1dd345176bbbee02f3ff","amp;dn":"Detention+2010+DVDRiP+XViD-LKRG","amp;tr":["udp%3A%2F%2Ftracker.openbittorrent.com%3A80","udp%3A%2F%2Fopen.demonii.com%3A1337","udp%3A%2F%2Ftracker.coppersurfer.tk%3A6969","udp%3A%2F%2Fexodus.desync.com%3A6969"],"infoHash":"f7d4b250d10776bcd20f1dd345176bbbee02f3ff","infoHashBuffer":{"type":"Buffer","data":[247,212,178,80,209,7,118,188,210,15,29,211,69,23,107,187,238,2,243,255]},"announce":[],"urlList":[]}}